<?xml version="1.0" encoding="UTF-8"?>
<svg id="Layer_2" data-name="Layer 2" xmlns="http://www.w3.org/2000/svg" viewBox="0 0 107.7 140.18">
  <defs>
    <style>
      .cls-1 {
        fill: #701017;
      }
    </style>
  </defs>
  <g id="HOMEPAGE">
    <g>
      <path class="cls-1" d="M0,52.57C.39,30.44,15.61,9.74,36.61,2.82c2.04-.67,5.85-2.32,7.3-.07,2.56,3.98-4.66,4.91-7.03,5.81C-8.37,25.62-2.77,91.89,44.28,101.22c53.14,10.53,80.48-61.17,34.61-88.85-4.62-2.79-9.4-4.29-14.46-6.07-1.96-1.85-.73-4.81,1.92-4.8,1.35,0,5.58,1.55,7.04,2.12,27.85,10.78,41.55,42.43,30.43,70.29-2.88,7.22-7.48,13.6-12.95,19.07l14.47,28.44c.18,1.74-1.21,2.89-2.84,3.06l-20.69-5.38-6.88,19.53c-.76,1.82-3.36,2.06-4.58.54l-16.18-31.31-.61.35-16.11,30.96c-1.27,1.44-3.56,1.32-4.5-.36l-6.97-19.72-20.5,5.35c-2.12.02-3.68-1.84-2.81-3.91l14.24-27.55C7.58,83.91,1.51,71.79.29,58.72c-.1-1.08-.26-3.02-.28-3.97-.01-.73-.01-1.46,0-2.19ZM47.89,107.32c-9.56-1.13-18.85-4.71-26.4-10.68l-11.08,20.8,16.07-4.31c1.09-.13,2.27-.28,3.08.61l5.95,16.22.61.35,11.77-22.99ZM97.41,117.45l-11.08-20.8c-7.55,5.97-16.84,9.56-26.4,10.68l11.77,22.99.61-.35,5.95-16.22c.81-.88,1.99-.74,3.08-.61l16.07,4.31Z"/>
      <path class="cls-1" d="M54.73,0c2.44.95,2.62,4.65,0,5.35-3.59.96-4.99-3.9-1.65-5.35h1.64Z"/>
      <path class="cls-1" d="M50.84,13.77c32-2.35,53.83,32.06,37.86,60.06-14.6,25.6-51.53,26.99-68.01,2.53-17.17-25.49-.38-60.34,30.15-62.59ZM51.12,19.25c-26.64,2.1-40.91,32.69-25.45,54.6,14.47,20.49,45.45,19.18,58.11-2.48,14.14-24.19-4.83-54.32-32.66-52.12Z"/>
      <path class="cls-1" d="M36.77,47.73c2.62-2.62,6.71-3,9.93-1.24,1.57.86,2.73,2.46,4.28,3.03.78-.2,7.3-7.54,8.82-8.73,8.18-6.39,18.12,3.69,11.35,11.91-2.79,3.39-10.72,11.44-14.1,14.09-2.58,2.02-5.55,2.59-8.67,1.57-1.99-.65-9.22-6.69-11.01-8.42-3.43-3.32-4.15-8.66-.6-12.22ZM64.23,44.42c-.44.12-1.06.71-1.44,1.02-3.73,3.07-6.87,7.59-10.79,10.56-3.72,1.37-7.96-8.03-11.38-4.27-1.14,1.25-.89,2.76.18,3.95.82.91,7.94,6.77,8.9,7.25,1.37.68,3.1.38,4.21-.64l13.69-13.95c1.05-2.43-.85-4.58-3.37-3.92Z"/>
    </g>
  </g>
</svg>