<?xml version="1.0" encoding="UTF-8"?>
<svg id="Layer_2" data-name="Layer 2" xmlns="http://www.w3.org/2000/svg" viewBox="0 0 133.78 132.23">
  <defs>
    <style>
      .cls-1 {
        fill: #701017;
      }
    </style>
  </defs>
  <g id="HOMEPAGE">
    <g>
      <path class="cls-1" d="M0,72.11c.61-1.81,1.59-2.98,2.74-4.45,9.21-11.77,19.99-22.96,29.53-34.48,3.74-2.29,6.46-1.44,9.66,1.05,2.64,2.06,6.11,4.69,6.38,8.26.09,1.2-.62,3-.46,3.57.18.63,4.54,3.38,3.89,5.41,2.89-1.19,5.86-2.37,9.02-2.61,7.06-.53,14.12,2.89,21.03,3.92-.05-3.43,2.01-5.38,4.37-7.45-1.13-2.35-.65-5.4,1.01-7.43,1.14-1.4,6.17-5.47,7.81-6.04,3.42-1.2,5.89.02,8.25,2.48.75.78,3.92,4.44,4.24,5.17.12.27.24.52.19.82-2.25,5.65-6.06-2.8-8.23-4.29-1.56-1.07-2.78-.85-4.29.15-.95.64-4.41,3.57-4.99,4.42-.77,1.12-.86,2.23-.31,3.46l30.38,35.73c1.01.66,2.35.54,3.4.03.7-.34,4.77-3.72,5.32-4.35,2.08-2.42.37-4.16-1.16-6.11-5.62-7.16-12.25-13.85-17.88-21.05-1.12-2.78,2.1-4,3.65-1.82,5.27,7.55,13.6,14.61,18.68,22.08,2.06,3.04,2.21,6.53-.27,9.4-1.26,1.46-6.52,5.78-8.29,6.08-.72.12-1.83.14-2.56.07-.96-.08-2.92-1.04-3.08-1.01-.51.08-2.34,1.99-3.31,2.44-1.36.62-2.7.76-4.18.65-.04.98.08,1.99-.03,2.97-.09.8-.96,3.17-.93,3.44.01.12,1.17,1.41,1.43,1.87,2.89,5.2-.09,11.96-5.96,12.89,4.21,8.29-4.02,16.36-12.28,12.28-1.25,7.99-10.4,10.37-15.94,4.7-.28,4.33-4.18,7.76-8.49,7.85-4.58.1-8.64-4.02-11.29-7.31-5.5,2.69-12.61-.17-13.15-6.56-.97.01-1.68.68-2.6.93-6.24,1.7-12.27-3.73-10.98-10.07-8.34-.48-11.93-9.95-5.82-15.81-.97-2.06-1.3-4.4-1.23-6.67-2.96.36-5.22-1.14-7.24-3.1-2.56,1.09-4.96,1.56-7.57.27-1.39-.69-6.69-5.35-7.45-6.66-.43-.74-.6-1.53-1-2.27v-2.87ZM35.73,35.86c-.42.09-.85.39-1.22.61L4.39,71.93c-1.7,2.78,1.4,4.88,3.33,6.45,2.6,2.12,4.11,3.82,7.05.79l29.09-34.4c.8-1.33.69-2.85-.34-4.03-.64-.72-4.46-3.91-5.28-4.39-.88-.51-1.46-.72-2.51-.51ZM86.58,50.26c-.77.9-1.24,2.54-.47,3.55.32.41,2.25,1.19,2.97,1.73,2.3,1.75,3.28,4.21,4.08,6.89l16.06,18.95c2.2,1.93,4.44.66,6.01-1.31l-26.38-31.1c-.48-.39-1.96.91-2.27,1.28ZM45.33,49.13l-26.78,31.48c4.73,5.2,6.51.12,9.53-3.01,1.02-1.05,2.83-3.01,4.07-.93s-2.42,4.69-3.52,6.44c-1.33,2.11-2.09,5.24-.8,7.55l20.75-17.39c5.97.39,11.65.17,16.91-2.95.92-.55,3.76-3.1,4.14-3.17,2.26-.44,9.01,2.18,11.82,2.54,8.04,1.02,10.45-8.98,3.9-11.74-3.94-1.66-14.28-4.02-18.72-4.8-5.7-1-10.89.07-15.55,3.54l-13.21,15.53c-2.21,1.29-4.26-.53-2.82-2.82,2.62-4.17,7.99-8.99,11.19-13.11,2.58-3.34,2.62-4.45-.91-7.17ZM106.34,89.62c.7-2.33.1-4.82-1.09-6.88l-13.02-15.33c-3.94,9.57-13.76,5.62-21.31,3.75-2.61,2.25-5.68,4.03-9.01,5-4.01,1.17-8.06,1.32-12.2,1.11-6.88,6.47-15.12,12.13-21.9,18.62-2.19,2.09-3.65,4.37-1.54,7.31,2.23,3.11,5.24,2.22,7.81.27,6.21-4.7,12-10.7,18.18-15.53,1.75-1.24,4,.66,2.88,2.62l-19.62,16.7c-3.81,4.09.32,10.28,5.56,7.91,7.22-5.2,13.64-12.16,20.72-17.43.86-.64,1.55-1.33,2.67-.85,1.37.59,1.48,2.25.6,3.34-4.71,4.3-10.32,8.16-14.9,12.53-2.2,2.1-3.71,4.19-1.68,7.17,1.49,2.18,4.09,2.74,6.4,1.47,1.77-.97.98-1.33,1.41-2.77,1.14-3.8,3.89-6.5,7.98-6.78-1.3-5.2,2.1-10.8,7.58-11.24-2.83-8.09,5.22-14.84,12.8-10.97.05-2.9,2.16-5.88,4.79-7.1,7.15-3.32,11.2,2.87,16.12,6.72.26.2.34.5.78.39ZM89.97,86.84c-1.26,1.18-1.58,2.82-1.4,4.48.18,1.65.97,2.34,2.09,3.4,3.13,2.97,7.03,5.63,10.27,8.54,4.55,2.08,9.13-2.55,6.51-7.03-.84-1.43-8.37-7.64-10.12-8.95-2.34-1.76-4.85-2.77-7.35-.44ZM78.84,92.56c-3.43.58-4.86,5.57-2.42,8.04l18.55,15.68c2.66,1.54,6.72-.18,7.17-3.3.42-2.88-.67-3.94-2.59-5.73-5.31-4.94-11.37-9.21-16.75-14.08-1.06-.83-2.67-.83-3.96-.61ZM87.44,122.19c2.71-2.7,1.36-5.63-.95-7.88-3.4-3.32-7.8-6.35-11.44-9.47-5.19-2.22-9.52,3.92-5.68,8.03,1.55,1.66,10.35,9.13,12.13,10.08,2,1.06,4.31.86,5.93-.76ZM63.95,115.81c-3.26.55-4.71,4.1-3.47,7,.5,1.16,4.42,4.6,5.63,5.08,4.43,1.78,8.46-2.65,6.38-6.9-.68-1.39-5.03-4.93-6.57-5.19-.66-.11-1.3-.11-1.97,0Z"/>
      <path class="cls-1" d="M67.94,0c4.43,1.16,4.96,6.46,7.12,9.86,3.67,1.18,9.96.1,11.88,4.19,2.54,5.43-3.89,8.21-6.66,11.72.32,4.06,3.42,10.38-1.07,13.07-4.31,2.59-8.26-1.87-12.21-3.31-4.06,1.31-8.63,6.39-12.89,2.99-3.67-2.93-.87-8.87-.61-12.75-2.62-3.64-8.81-5.94-6.78-11.31,1.78-4.7,8.1-3.24,12-4.59,2.12-3.39,2.81-8.65,7.12-9.86h2.09ZM56.5,35.47c.37.37,1.03.33,1.51.21,2.24-.56,6.96-4.44,9.01-4.35,2.14.09,7.71,4.54,9.39,4.46.92-.05,1.35-.78,1.37-1.64.04-2.52-1.95-7.33-1.42-9.66.4-1.77,7.13-6.55,7.26-7.91.08-.79-.5-1.43-1.24-1.62-2.12-.55-8.2-.61-9.61-1.62-.33-.23-.48-.55-.7-.87-1.4-2.09-2.48-6.06-3.91-7.85-.32-.4-.63-.63-1.16-.68-.3-.03-.57.06-.83.19-1.34.64-3.49,7.82-4.95,9.23-2.04,1.19-9.01.84-10.51,1.96-.73.55-.56,1.27-.13,1.93,1.01,1.56,6.53,5.91,6.86,6.99.67,2.27-2.25,9.92-.93,11.25Z"/>
      <path class="cls-1" d="M70.73,17.82c1.8-.54,3.16.75,2.57,2.57-.46,1.44-5.11,4.87-6.16,6.38-1.55,1.08-5.69-3.16-6.21-4.24-.39-.8-.01-2.1.79-2.48,2.37-1.12,3.67,2.28,4.48,2.14,1.11-.64,3.6-4.09,4.53-4.37Z"/>
    </g>
  </g>
</svg>