<?xml version="1.0" encoding="UTF-8"?>
<svg id="Layer_2" data-name="Layer 2" xmlns="http://www.w3.org/2000/svg" viewBox="0 0 132.17 132.23">
  <defs>
    <style>
      .cls-1 {
        fill: #701017;
      }
    </style>
  </defs>
  <g id="HOMEPAGE">
    <g>
      <path class="cls-1" d="M.05,61.99C2.22,24.93,35.56-3.13,72.45.28c8.72.81,17.15,3.58,24.91,7.49-.47.61-1.45,3.64-2.15,3.58C62.27-6.17,21.06,9.59,8.12,44.37c-12.84,34.52,7.06,72.68,42.52,81.79,44.52,11.44,85.6-28.06,76.07-73-2.78-13.11-9.92-25.19-20.05-33.91l2.74-2.95c25.25,21.44,30.1,59.17,11.56,86.72-11.22,16.67-30.55,28.02-50.7,29.2h-8.26l-8.05-1.11C26.32,125.98,4.25,102.95.6,75c-.2-1.55-.16-3.25-.55-4.74.12-2.73-.16-5.54,0-8.26Z"/>
      <path class="cls-1" d="M63.49,8.1c41.16-2.03,71.36,39.29,57.1,78.04-15.68,42.6-72.26,51.52-100.26,15.59C-8.65,64.53,16.8,10.4,63.49,8.1ZM64.06,17.84v-5.68c-2.48.4-5.02.45-7.5.89-8.42,1.48-17.5,5.59-24.11,10.99-.6.49-2.11,1.65-2.47,2.18-.18.27-.32.28-.13.65.38.73,3.59,3.1,3.48,3.71l-2.91,2.73-3.87-3.58c-6.93,7.26-11.81,17.11-13.51,27.04-.41,2.41-.45,4.88-.85,7.28h5.68v4.13h-5.68c.38,2.93.57,5.87,1.16,8.78,1.62,8.05,5.53,16.48,10.72,22.84.49.6,1.65,2.11,2.18,2.48.27.18.28.32.65.13.73-.38,3.1-3.59,3.71-3.48l2.73,2.92-3.58,3.87c7.22,6.9,17.14,11.84,27.02,13.52,2.41.41,4.88.44,7.29.84v-5.68h4.13v5.68c2.41-.4,4.87-.44,7.28-.85,9.91-1.7,19.79-6.59,27.03-13.52l-3.58-3.87,2.73-2.92c.61-.11,2.98,3.11,3.71,3.48.38.19.38.06.65-.13.53-.36,1.69-1.87,2.18-2.48,5.2-6.37,9.08-14.78,10.72-22.84.59-2.91.78-5.85,1.16-8.78h-5.68v-4.13h5.68c-.4-2.41-.44-4.87-.85-7.28-1.69-9.92-6.58-19.79-13.51-27.04l-3.87,3.58-2.91-2.73c-.11-.61,3.1-2.98,3.48-3.71.19-.38.06-.38-.13-.65-.36-.53-1.87-1.69-2.47-2.18-6.34-5.18-14.79-9.12-22.83-10.73-2.91-.58-5.84-.78-8.78-1.16v5.68h-4.13Z"/>
      <path class="cls-1" d="M102.13,10.61l3.73,2.74c.16.52-1.74,2.69-2.23,3.17l-3.66-2.46,2.16-3.45Z"/>
      <path class="cls-1" d="M68.19,36.69v21.3c4.57,1.62,7.45,6.06,5.73,10.89-.29.82-1.94,3.08-1.83,3.51l7.96,9.9-3.2,2.68-8.52-10.61-.5-.22c-3,.87-6.13-.53-8.04-2.82l-30.04,7.19-1-3.75,29.11-7.1c-.48-4.63,1.95-8.11,6.21-9.67v-21.3h4.13ZM65.29,62.06c-4.97.81-4.12,9.08,1.68,8.14,4.97-.81,4.12-9.08-1.68-8.14Z"/>
    </g>
  </g>
</svg>