<?xml version="1.0" encoding="UTF-8"?>
<svg id="Layer_2" data-name="Layer 2" xmlns="http://www.w3.org/2000/svg" viewBox="0 0 137.05 136.93">
  <defs>
    <style>
      .cls-1 {
        fill: #701017;
      }
    </style>
  </defs>
  <g id="HOMEPAGE">
    <g>
      <path class="cls-1" d="M56.79,136.93c-.65-.54-1.18-.85-1.33-1.76-.23-1.45.27-9.39-.04-9.76-6.24-1.4-12.16-3.92-17.6-7.24-.73-.07-5.84,6.01-7.08,6.79-.67.42-1.09.55-1.88.3l-16.63-16.39c-.62-.68-.74-1.59-.23-2.38l6.91-7.23c-3.34-5.42-5.82-11.38-7.24-17.6-.37-.32-8.31.18-9.76-.04-1.09-.17-1.64-.93-1.77-1.99-.2-1.72-.19-6.07,0-7.8s.96-2.15,2.54-2.29c9.98-.9,21.31.72,31.43,0,3.18.29,2.4,2.46,2.93,4.86,7.68,34.85,55.42,34.84,63.1,0,.53-2.4-.25-4.56,2.93-4.86,10.05-.92,21.5.73,31.69,0,1.27.14,1.69.59,2.28,1.62v9.13c-.28.33-1.09,1.34-1.48,1.34h-10.07c-1.34,6.25-3.89,12.2-7.21,17.63l6.91,7.23c.6.94.3,1.95-.5,2.66l-16.37,16.12c-.79.25-1.21.12-1.88-.3-1.24-.79-6.35-6.86-7.08-6.79-5.43,3.32-11.38,5.87-17.63,7.21v10.07c0,.39-1.01,1.19-1.34,1.48h-23.62ZM32.63,73.85H4.45v3.49h9.26c1.94,0,2.5,5.04,3.02,6.65,1.18,3.71,2.53,6.99,4.32,10.44.88,1.69,3.16,4.21,2.67,6.06-.43,1.63-5.36,5.29-6.53,6.91l.13.68,12,11.92c.76.13,5.72-6.21,7.28-6.63,1.87-.5,5,2.12,6.77,3.03,3.17,1.62,6.33,2.88,9.73,3.96,1.6.51,6.65,1.04,6.65,3.02v9.26h17.72v-9.26c0-1.97,5.05-2.51,6.65-3.02,3.61-1.15,6.91-2.5,10.27-4.23,1.72-.88,4.38-3.25,6.24-2.76,1.49.4,6.56,6.64,7.04,6.64l12.36-12.61c-1.16-1.61-6.09-5.29-6.52-6.91-.52-1.98,1.81-4.44,2.76-6.24,1.74-3.32,3.09-6.69,4.23-10.27.51-1.6,1.04-6.65,3.02-6.65h9.26v-3.49h-28.18c-1.76,12.83-10.95,24.11-23.02,28.65-21.76,8.2-45.58-5.79-48.92-28.65Z"/>
      <path class="cls-1" d="M79.38,80.6c.58,4.66-2.66,9.4-7.43,9.89-5.48.55-11.83.34-13.83-5.75-.31-.94-.51-3.98-.65-4.18-.08-.12-1.73-.87-2.3-1.46-3.95-4.03-.17-11.59-2.71-15-.88-1.18-4.42-3.1-5.87-4.33C25.72,42.02,33.71,7.42,60.33,1.02c32.32-7.77,55.53,30.58,33.64,55.38-2.79,3.16-5.69,4.48-8.59,6.98-.79.69-1.36,1.46-1.49,2.54-.61,5.04,1.89,12.39-4.51,14.68ZM79.6,67.41c-.85-6.17,4.23-7.63,7.91-10.74,23.53-19.92,4.91-58.09-25.37-51.67-24.18,5.13-31.46,37-11.93,52.21,3.72,2.9,7.83,4.34,7.37,10.21h5.1v-21.34c-4.02-1.42-9.24-3.24-10.97-7.55-3.22-8.05,6.66-14.44,12.71-8.96.77.7,2.55,3.5,2.55,4.43v8.19h2.95v-7.11c0-6.99,10.08-10.32,14.49-4.29,3.71,5.06.4,10.42-4.38,13.06-1.9,1.05-3.86,1.42-5.82,2.24v21.34h5.37ZM62.69,41.37v-6.84c0-.1-.75-1.3-.93-1.49-1.49-1.63-4.34-1.55-5.63.3-2.84,4.06,3.26,7.41,6.56,8.03ZM74.24,41.37c2.2-.36,5.6-1.88,6.77-3.84,2.94-4.9-4.45-7.85-6.28-3.59-.1.22-.49,1.3-.49,1.39v6.04ZM69.94,46.47h-2.95v20.94h2.95v-20.94ZM79.34,71.7h-21.74c.04,1.97-.56,4.34,1.86,4.98,5.44-.1,11.42.52,16.81.13,3.85-.28,3.04-1.88,3.08-5.11ZM75.04,81.1h-13.15c-.12,2.47,1.24,4.86,3.88,5.11,1.59.15,5.76.18,7.1-.44,1.71-.79,2.4-2.87,2.18-4.67Z"/>
      <path class="cls-1" d="M101.7,55.24c-1.47-1.61-.03-4.04,2.13-3.63,1.58,1.1,8.22,4.06,8.68,5.58.54,1.78-1.19,3.15-2.92,2.64l-7.89-4.59Z"/>
      <path class="cls-1" d="M26.11,7.6c.65-.2,1.26-.06,1.89.15.58.19,7.04,3.95,7.46,4.35,1.7,1.59.17,4.4-2.3,3.64-.56-.17-6.94-3.86-7.49-4.32-1.26-1.04-1.09-3.36.45-3.83Z"/>
      <path class="cls-1" d="M109.6,7.61c2.53-.5,3.75,2.09,1.69,3.84-.72.61-6.73,4.09-7.52,4.3-2.3.61-3.92-1.97-1.89-3.78.58-.52,7.12-4.25,7.72-4.36Z"/>
      <path class="cls-1" d="M20.21,31.5c1.37-.25,7.41-.27,8.73,0,2.51.51,2.3,3.85.32,4.23-.86.16-8.92.15-9.6-.05-1.78-.52-1.88-3.74.55-4.18Z"/>
      <path class="cls-1" d="M33.88,51.92c1.46-.08,2.61,1.51,2.18,2.95-.4,1.35-7.12,4.37-8.53,5.44-2.38.5-3.72-2.16-1.89-3.78.92-.82,5.84-3.66,7.07-4.2.34-.15.8-.39,1.16-.41Z"/>
      <path class="cls-1" d="M108.52,31.5c1.53-.26,6.92-.26,8.41.06,2.59.54,2.48,3.82.37,4.16-1.07.17-8.78.2-9.59-.04-1.85-.54-1.93-3.72.81-4.17Z"/>
    </g>
  </g>
</svg>