<?xml version="1.0" encoding="UTF-8"?>
<svg id="Layer_2" data-name="Layer 2" xmlns="http://www.w3.org/2000/svg" viewBox="0 0 128.35 62.29">
  <defs>
    <style>
      .cls-1 {
        fill: #030303;
      }

      .cls-2 {
        font-family: Denmark, Denmark;
        font-size: 13.21px;
      }

      .cls-3 {
        fill: #b61e31;
      }

      .cls-4 {
        fill: #b91e2c;
      }
    </style>
  </defs>
  <g id="SERVICIOS">
    <g>
      <path d="M108.9,19.78c0,.69-.68,1.24-1.52,1.24h-7.76c-.84,0-1.52-.56-1.52-1.24v-7.21c0-.69.68-1.24,1.52-1.24h5.91c.84,0,1.27.56,1.52,1.24,0,0,1.63,4.82,1.85,6.47.08.6,0,.74,0,.74Z"/>
      <text class="cls-2" transform="translate(0 59.24) scale(1.01 1)"><tspan class="cls-1" x="0" y="0">CARROCERÍAS</tspan><tspan class="cls-3" x="101.31" y="0" xml:space="preserve"> 3G</tspan></text>
      <path class="cls-4" d="M59.32,37.38H20.79c-2.99,0-5.31-1.45-6.96-4.35-1.43-2.47-2.14-5.48-2.14-9.03,0-4.2.56-7.6,1.67-10.2,1.43-3.33,3.72-5,6.89-5h39.07V.1H20.99c-3.08,0-6.09.58-9.03,1.75-3.79,1.51-6.71,4.35-8.76,8.5C1.32,14.11.38,18.44.38,23.32s1.05,9.49,3.14,13.3c2.32,4.19,5.46,6.87,9.43,8.04,2.05.56,4.12.84,6.22.84l40.14.06v-8.18Z"/>
      <path d="M128.11,22.83c-.46-2.65-3.38-7.12-11.36-7.12h-5.16v7.51h5.16c2.44,0,3.54.63,3.91,1.03v12.38c0,.27,0,1.01-.66,1.43h-24.1V7.72h13.5V0h-35.18v.08h-13.7v8.11h20.29c4.33,0,6.5,1.64,6.5,4.93,0,1.75-.55,3.11-1.65,4.07-1.1.96-2.53,1.44-4.29,1.44h-16.49l.18,7.91h16.86c1.59,0,2.92.57,3.98,1.7,1.06,1.13,1.59,2.52,1.59,4.18-.12,1.48-.71,2.69-1.75,3.62-1.04.94-2.26,1.4-3.65,1.4l-21.45.07v7.91l34.37.1v.05h26.24l.48-.13c2.22-.61,6.43-3.23,6.43-8.81v-13.47l-.06-.32Z"/>
    </g>
  </g>
</svg>